<?xml version="1.0" encoding="UTF-8" standalone="no"?><!-- Generator: Gravit.io --><svg xmlns="http://www.w3.org/2000/svg" xmlns:xlink="http://www.w3.org/1999/xlink" style="isolation:isolate" viewBox="24.994 178.385 131.006 184.615" width="131.006pt" height="184.615pt"><g><g><path d=" M 40.61 356.662 L 42.893 335.874 L 36.351 336.818 L 35.721 357.488 L 38.47 360.001 L 40.61 356.662 Z " fill="rgb(255,139,102)"/><path d=" M 35.721 357.488 C 35.721 357.488 34.216 362.02 35.075 362.409 C 35.933 362.797 38.194 362.759 39.102 362.409 C 39.102 362.409 42.389 363.53 49.558 362.685 C 49.558 362.685 50.154 360.744 47.867 359.648 C 45.582 358.552 42.43 358.028 40.61 356.662 C 40.61 356.662 38.414 357.55 35.721 357.488 Z " fill="rgb(28,38,53)"/><path d=" M 60.017 356.662 L 61.108 335.874 L 54.566 336.818 L 55.129 357.488 L 57.878 360.001 L 60.017 356.662 Z " fill="rgb(255,139,102)"/><path d=" M 55.13 357.488 C 55.13 357.488 53.625 362.02 54.484 362.409 C 55.342 362.797 57.603 362.759 58.51 362.409 C 58.51 362.409 61.798 363.53 68.967 362.685 C 68.967 362.685 69.562 360.744 67.276 359.648 C 64.991 358.552 61.839 358.028 60.018 356.662 C 60.018 356.662 57.822 357.55 55.13 357.488 Z " fill="rgb(28,38,53)"/><path d=" M 61.148 257.147 L 37.546 257.147 C 37.546 257.147 31.398 263.456 34.208 281.56 C 37.086 300.105 35.956 321.737 34.782 355.077 L 42.219 355.077 L 50.354 286.201 L 54.139 355.077 L 60.605 355.077 C 60.605 355.077 61.957 332.833 63.197 313.154 C 64.828 287.265 64.434 261.398 61.148 257.147 Z " fill="rgb(37,49,71)"/><path d=" M 41.526 257.397 C 41.526 257.397 38.592 269.544 39.307 292.587 C 40.023 315.629 37.769 354.834 37.769 354.834" fill="none" vector-effect="non-scaling-stroke" stroke-width="0.65" stroke="rgb(28,38,53)" stroke-linejoin="miter" stroke-linecap="square" stroke-miterlimit="3"/><path d=" M 40.054 197.706 C 38.667 199.141 37.881 201.266 37.654 203.102 C 37.351 205.544 38.367 207.476 37.904 209.904 C 37.3 213.07 34.033 214.769 33.111 217.798 C 32.245 220.638 33.69 222.968 34.664 225.545 C 35.156 226.843 35.523 228.127 35.567 229.495 C 35.625 231.336 35.966 232.314 37.564 233.566 C 40.081 235.538 43.523 235.126 45.264 232.508 C 46.168 231.148 46.387 229.61 47.884 228.637 C 49.023 227.895 50.421 227.735 51.78 227.689 C 54.534 227.598 57.719 228.06 59.667 225.818 C 60.78 224.538 61.384 222.649 60.987 221.014 C 60.612 219.471 59.342 218.082 58.627 216.663 C 57.41 214.243 57.394 211.899 57.407 209.28 C 57.422 205.916 56.654 201.965 54.145 199.331 C 52.313 197.408 49.753 196.339 47.057 195.883 C 44.17 195.395 41.991 195.701 40.054 197.706 Z " fill="rgb(158,56,52)"/><path d=" M 68.294 238.785 C 68.294 238.785 70.555 246.475 71.394 249.008 C 72.45 252.197 78.079 267.799 78.956 268.801 C 79.832 269.803 83.006 273.052 83.006 274.366 C 83.006 275.681 80.868 277.84 80.054 278.09 C 79.24 278.341 76.007 274.324 75.46 271.549 C 74.399 266.164 68.362 257.097 64.96 250.761 C 62.565 246.302 60.436 240.93 60.436 240.93 L 68.294 238.785 Z " fill="rgb(235,133,93)"/><path d=" M 59.571 220.707 C 59.571 220.707 63.794 222.569 69.461 239.319 C 69.461 239.319 65.946 243.957 61.109 244.569 C 61.109 244.569 50.418 228.03 59.571 220.707 Z " fill="rgb(181,60,61)"/><path d=" M 63.155 236.206 C 62.995 238.956 60.428 241.417 60.435 244.986 C 60.445 249.795 63.267 254.93 61.191 257.121 C 61.071 257.249 60.898 257.361 60.673 257.46 C 57.865 258.766 47.256 258.547 41.363 257.89 C 39.492 257.683 38.101 257.431 37.583 257.168 C 34.988 255.858 37.821 248.857 36.988 241.819 C 36.804 240.271 36.41 238.589 35.956 236.862 C 35.562 235.383 35.131 233.873 34.737 232.393 C 33.525 227.737 32.802 223.419 35.572 221.422 C 40.546 217.835 48.337 217.369 48.337 217.369 C 55.009 217.543 56.146 218.518 59.223 220.449 C 61.893 222.135 63.481 230.412 63.155 236.206 Z " fill="rgb(217,72,73)"/><path d=" M 60.673 257.46 C 57.865 258.766 47.256 258.547 41.363 257.89 C 39.492 257.683 38.102 257.431 37.583 257.168 C 34.988 255.858 37.821 248.857 36.988 241.819 C 36.805 240.272 36.41 238.589 35.956 236.862 C 36.75 235.471 37.807 234.318 39.203 233.557 C 39.203 233.557 35.488 254.415 43.38 255.654 C 50.656 256.796 55.544 258.598 60.673 257.46 Z " fill="rgb(181,60,61)"/><path d=" M 45.676 208.456 C 45.676 208.456 45.424 217.704 45.446 218.123 C 45.48 218.805 46.221 223.147 52.238 226.153 C 52.238 226.153 54.435 223.041 53.687 217.996 C 54.062 212.073 54.079 208.613 54.079 208.613 L 45.676 208.456 Z " fill="rgb(249,127,95)"/><path d=" M 58.263 201.741 C 58.263 201.741 59.162 205.137 58.677 209.143 C 58.202 213.052 55.511 217.174 52.335 217.174 C 48.137 217.174 45.944 212.403 45.627 209.653 C 45.627 209.653 44.367 209.518 43.835 207.924 C 43.395 206.603 44.859 205.761 45.831 206.539 C 45.831 206.539 46.082 200.495 48.805 198.842 C 51.529 197.189 56.691 200.59 58.263 201.741 Z " fill="rgb(255,139,102)"/><path d=" M 26.835 276.526 C 26.835 278.655 25.27 281.222 25.019 283.039 C 24.769 284.854 26.522 288.297 26.522 288.297 C 26.522 288.297 27.711 289.112 28.588 289.049 C 29.464 288.987 28.024 287.359 28.149 286.232 C 28.274 285.105 29.089 282.349 29.464 282.099 C 29.84 281.848 29.84 284.04 30.592 284.291 C 31.343 284.541 31.414 281.531 31.67 280.91 C 31.925 280.288 31.593 276.964 31.343 275.149 C 31.093 273.333 36.352 239.208 36.352 239.208 C 36.352 239.208 32.552 238.081 30.673 237.235 C 29.238 239.235 28.071 246.265 27.742 250.009 C 26.991 258.556 26.835 275.344 26.835 276.526 Z " fill="rgb(235,133,93)"/><path d=" M 33.901 223.04 C 33.901 223.04 29.211 228.236 27.504 243.223 C 27.504 243.223 31.679 246.489 37.128 244.986 C 37.128 244.986 40.835 232.03 40.117 227.279 C 39.399 222.527 35.302 220.715 33.901 223.04 Z " fill="rgb(229,83,90)"/><path d=" M 45.867 206.768 C 45.867 206.768 46.156 205.502 46.867 204.924 C 48.073 203.944 49.877 202.895 49.358 200.369 C 49.358 200.369 48.055 195.305 44.172 198.592 C 41.657 200.722 45.867 206.768 45.867 206.768 Z " fill="rgb(158,56,52)"/><path d=" M 43.366 197.482 C 43.366 197.482 45.932 198.998 48.874 200.171 C 48.874 200.171 50.754 202.008 54.268 201.957 C 58.648 201.893 58.821 205.174 58.821 205.174 C 58.821 205.174 62.072 201.966 60.372 198.397 C 58.672 194.828 54.755 192.461 50.202 192.455 C 45.945 192.45 42.273 195.361 43.366 197.482 Z " fill="rgb(158,56,52)"/><path d=" M 50.354 286.201 L 51.835 276.112 C 51.835 276.112 52.103 287.375 50.844 295.119 L 50.354 286.201 Z " fill="rgb(28,38,53)"/></g><g><path d=" M 141.264 250.776 C 141.264 250.776 144.106 253.03 144.951 253.1 C 145.796 253.171 146.897 253.175 147.487 253.265 C 148.077 253.354 149.141 254.319 149.929 254.427 C 150.717 254.536 151.267 254.815 151.267 254.815 C 151.267 254.815 149.862 255.679 149.702 255.926 C 149.529 256.194 150.904 256.831 151.878 257.085 C 152.852 257.338 155.838 258.381 155.994 258.775 C 156.152 259.169 153.263 260.966 151.15 261.226 C 149.237 261.462 146.102 260.074 145.562 259.675 C 145.021 259.276 144.457 258.055 143.378 257.421 C 142.297 256.787 138.682 255.19 138.682 255.19 L 141.264 250.776 Z " fill="rgb(255,139,102)"/><path d=" M 146.263 260.058 C 146.263 260.058 146.087 258.697 146.263 258.485 C 146.438 258.274 149.89 260.127 150.477 260.058 C 151.064 259.988 150.9 261.115 150.571 261.35 C 150.242 261.584 146.816 260.926 146.263 260.058 Z " fill="rgb(249,127,95)"/><path d=" M 93.313 356.662 L 95.863 335.874 L 89.321 336.818 L 88.424 357.488 L 91.174 360.001 L 93.313 356.662 Z " fill="rgb(255,139,102)"/><path d=" M 88.424 357.488 C 88.424 357.488 86.919 362.02 87.778 362.409 C 88.636 362.797 90.897 362.759 91.805 362.409 C 91.805 362.409 95.092 363.53 102.262 362.685 C 102.262 362.685 102.857 360.744 100.57 359.648 C 98.285 358.552 95.134 358.028 93.313 356.662 C 93.313 356.662 91.117 357.55 88.424 357.488 Z " fill="rgb(28,38,53)"/><path d=" M 113.224 356.662 L 114.377 335.874 L 107.835 336.818 L 108.336 357.488 L 111.085 360.001 L 113.224 356.662 Z " fill="rgb(255,139,102)"/><path d=" M 108.336 357.488 C 108.336 357.488 106.83 362.02 107.69 362.409 C 108.548 362.797 110.809 362.759 111.716 362.409 C 111.716 362.409 115.004 363.53 122.173 362.685 C 122.173 362.685 122.768 360.744 120.482 359.648 C 118.197 358.552 115.045 358.028 113.224 356.662 C 113.224 356.662 111.028 357.55 108.336 357.488 Z " fill="rgb(28,38,53)"/><path d=" M 88.56 257.71 C 88.56 257.71 84.02 285.413 86.989 354.833 L 95.209 354.833 C 95.209 354.833 101.893 308.945 104.633 289.763 L 106.856 354.833 L 114.848 354.833 C 114.848 354.833 122.094 275.383 118.045 257.71 L 88.56 257.71 Z " fill="rgb(37,49,71)"/><path d=" M 104.637 288.705 L 106.766 275.18 C 106.766 275.18 105.956 289.051 105.027 300.105 L 104.637 288.705 Z " fill="rgb(28,38,53)"/><path d=" M 93.339 264.237 C 93.339 264.237 90.709 305.438 91.085 354.834" fill="none" vector-effect="non-scaling-stroke" stroke-width="0.65" stroke="rgb(28,38,53)" stroke-linejoin="miter" stroke-linecap="square" stroke-miterlimit="3"/><path d=" M 92.928 271.548 C 92.928 271.548 100.9 269.027 100.289 263.393" fill="none" vector-effect="non-scaling-stroke" stroke-width="0.65" stroke="rgb(28,38,53)" stroke-linejoin="miter" stroke-linecap="square" stroke-miterlimit="3"/><path d=" M 111.155 207.538 C 109.44 210.256 110.66 219.682 111.46 225.745 C 112.628 234.596 113.11 238.727 114.766 241.499 C 119.532 249.475 135.429 255.113 138.76 256.913 C 139.717 255.879 141.907 252.779 142.704 251.049 C 142.704 251.049 129.722 241.736 125.61 235.458 C 125.61 235.458 121.301 219.637 119.872 213.661 C 117.909 205.464 112.494 205.416 111.155 207.538 Z " fill="rgb(251,152,35)"/><path d=" M 104.966 203.736 C 104.966 203.736 116.048 204.8 118.279 209.46 C 121.69 216.589 120.175 232.212 119.328 247.803 C 119.046 252.999 122.623 262.594 118.813 263.111 C 118.813 263.111 100.436 268.616 87.987 262.263 C 85.148 260.434 88.045 252.062 87.639 246.255 C 86.551 230.709 84.237 213.575 87.535 209.189 C 91.649 203.719 103.96 203.643 104.966 203.736 Z " fill="rgb(255,170,63)"/><path d=" M 87.987 262.263 C 85.147 260.434 88.045 252.062 87.638 246.255 C 86.666 232.362 84.718 217.207 86.669 211.01 C 90.287 212.915 93.819 214.966 93.787 215.696 C 93.787 215.696 94.163 234.856 92.034 241.868 C 89.907 248.876 87.785 258.984 89.779 263.073 C 89.172 262.825 88.571 262.561 87.987 262.263 Z " fill="rgb(251,152,35)"/><path d=" M 99.715 185.462 C 99.715 185.462 96.766 184.295 95.648 186.775 C 94.19 190.007 98.398 197.36 100.101 202.141 C 100.101 202.141 103.734 188.233 99.715 185.462 Z " fill="rgb(116,47,40)"/><path d=" M 100.846 190.941 C 100.846 190.941 99.516 202.235 99.283 204.078 C 99.11 205.451 101.1 209.394 105.612 208.9 C 108.724 208.56 108.626 204.329 108.53 203.016 C 108.432 201.703 108.432 193.485 108.432 193.485 L 100.846 190.941 Z " fill="rgb(249,127,95)"/><path d=" M 113.132 187.31 C 113.132 187.31 115.24 203 108.237 203 C 101.916 203.001 100.165 196.258 100.263 195.156 C 100.263 195.156 98.61 194.442 98.414 193.275 C 98.22 192.108 99.728 191.33 100.7 192.108 C 100.7 192.108 101.04 187.975 103.764 186.321 C 106.486 184.668 111.56 186.159 113.132 187.31 Z " fill="rgb(255,139,102)"/><path d=" M 102.755 188.521 C 102.755 188.521 108.059 185.381 113.132 187.31 C 113.132 187.31 120.408 184.385 117.136 179.563 C 115.288 176.839 111.991 179.778 108.82 179.173 C 106.341 178.7 104.761 181.643 102.062 181.556 C 99.029 181.459 96.843 183.07 97.004 185.057 C 97.345 189.239 100.7 192.108 100.7 192.108 C 100.7 192.108 101.04 192.837 100.895 193.664 C 100.895 193.664 103.764 192.108 102.755 188.521 Z " fill="rgb(116,47,40)"/><path d=" M 79.9 264.237 C 79.9 264.237 79.662 268.729 78.917 269.892 C 78.171 271.054 77.175 272.381 77.097 274.318 C 77.044 275.666 77.441 276.002 78.122 277.294 C 78.363 277.751 79.531 278.595 80.428 278.745 C 81.716 278.961 83.096 278.898 83.399 278.346 C 83.913 277.411 83.671 274.09 83.671 274.09 C 83.671 274.09 84.157 275.664 85.066 275.824 C 85.962 275.981 85.359 274.904 85.162 274.568 C 84.798 273.946 84.492 272.84 84.524 272.326 C 84.557 271.812 83.378 270.954 83.312 270.402 C 83.248 269.849 84.161 265.37 84.161 265.37 L 79.9 264.237 Z " fill="rgb(255,139,102)"/><path d=" M 88.537 207.802 C 85.948 209.706 81.515 221.522 78.93 236.108 C 78.266 239.849 77.954 265.16 78.213 267.336 C 78.555 270.201 85.317 270.108 85.483 267.839 C 86.03 260.367 88.15 241.616 89.168 237.893 C 90.842 231.765 92.95 224.151 94.483 218.2 C 96.522 210.291 90.558 206.315 88.537 207.802 Z " fill="rgb(255,182,75)"/></g></g></svg>