<?xml version="1.0" encoding="UTF-8" standalone="no"?><!-- Generator: Gravit.io --><svg xmlns="http://www.w3.org/2000/svg" xmlns:xlink="http://www.w3.org/1999/xlink" style="isolation:isolate" viewBox="-180.08 -5.5 632.08 737" width="632.08pt" height="737pt"><g><rect x="-180.08" y="-5.5" width="585" height="390" transform="matrix(1,0,0,1,0,0)" fill="none"/><path d=" M -114.004 44.79 C -116.828 44.79 -119.117 47.079 -119.117 49.903 L -119.117 49.903 L -119.117 329.098 C -119.117 331.921 -116.828 334.211 -114.004 334.211 L -114.004 334.211 L 338.844 334.211 C 341.667 334.211 343.957 331.921 343.957 329.098 L 343.957 329.098 L 343.957 49.903 C 343.957 47.079 341.667 44.79 338.844 44.79 L 338.844 44.79 L -114.004 44.79 Z " fill="none"/><g opacity="0.220001"><path d=" M 451 257.956 L 452 233.393 L 410 190.357 L 432 89.945 L 362.28 48.432 C 362.28 47.12 362.696 44.993 362.28 43.752 C 360.866 39.54 353.393 37.448 349.233 36.197 C 337.611 32.701 324.369 32.83 312.995 37.214 C 302.568 41.234 294.71 48.818 288.326 57.949 C 281.765 67.334 278.377 78.515 271.973 87.963 C 265.487 97.53 257.275 101.039 246.272 103.15 C 215.68 109.022 187.437 88.638 156.63 90.855 C 153.651 91.069 150.681 91.524 147.795 92.299 C 130.03 97.067 121.179 113.083 114.29 128.782 C 106.246 147.108 98.233 163.048 84.843 178.17 C 75.928 188.237 59.828 192.018 54.78 205.116 C 51.346 214.027 51.979 224.141 53.407 233.393 C 54.509 240.538 58.443 247.144 59.12 254.24 C 61.128 275.303 28.816 282.401 8.846 281.152 C -2.214 280.461 -18.436 279.84 -27.839 286.513 C -41.181 295.979 -47.525 314.429 -59.79 325.414 C -73.279 337.494 -98.667 349.328 -117.16 344.72 L -107.08 731.5 L 390.92 682.5 L 451 257.956 Z " fill="rgb(101,112,210)"/></g><g opacity="0.580002"><path d=" M 327.326 104.54 C 326.363 102.109 323.995 100.389 321.222 100.389 C 319.681 100.389 318.268 100.923 317.148 101.811 C 316.753 99.229 314.53 97.248 311.838 97.248 C 310.639 97.248 309.535 97.646 308.641 98.309 C 307.934 95.001 304.997 92.52 301.478 92.52 C 297.552 92.52 294.356 95.61 294.169 99.49 C 293.595 99.281 292.978 99.162 292.332 99.162 C 290.379 99.162 288.674 100.206 287.732 101.764 C 286.952 101.529 286.128 101.4 285.271 101.4 C 282.607 101.4 280.23 102.624 278.668 104.54 L 327.326 104.54 Z " fill="rgb(255,255,255)"/></g><g opacity="0.580002"><path d=" M 172.785 121.336 C 171.775 120.025 170.194 119.177 168.412 119.177 C 167.757 119.177 167.13 119.298 166.547 119.507 C 166.141 118.775 165.36 118.279 164.464 118.279 C 164.201 118.279 163.949 118.323 163.712 118.401 C 163.347 116.461 161.647 114.991 159.601 114.991 C 158.774 114.991 158.006 115.234 157.357 115.648 C 156.345 113.121 153.877 111.334 150.99 111.334 C 148.038 111.334 145.531 113.2 144.561 115.813 C 143.846 115.426 143.028 115.206 142.157 115.206 C 140.053 115.206 138.252 116.492 137.49 118.32 C 137.035 118.245 136.569 118.195 136.093 118.195 C 133.428 118.195 131.051 119.42 129.489 121.336 L 172.785 121.336 Z " fill="rgb(255,255,255)"/></g><g opacity="0.580002"><path d=" M 208.416 151.752 C 206.846 149.361 204.145 147.78 201.072 147.78 C 199.481 147.78 197.994 148.209 196.706 148.949 C 195.391 147.502 193.5 146.588 191.39 146.588 C 190.461 146.588 189.576 146.77 188.761 147.091 C 188.521 143.336 185.409 140.362 181.592 140.362 C 180.3 140.362 179.091 140.707 178.043 141.304 C 176.475 137.983 173.105 135.68 169.189 135.68 C 164.197 135.68 160.086 139.415 159.478 144.242 C 157.134 144.275 155.11 145.614 154.096 147.566 C 154.011 147.564 153.927 147.553 153.841 147.553 C 150.278 147.553 147.1 149.19 145.011 151.752 L 208.416 151.752 Z " fill="rgb(255,255,255)"/></g><path d=" M 138.564 266.525 L 142.544 266.525 L 146.396 266.525 L 182.882 266.525 L 194.371 266.525 C 194.772 265.691 195.002 264.76 195.002 263.774 C 195.002 260.252 192.147 257.398 188.627 257.398 C 188.357 257.398 188.094 257.42 187.833 257.453 C 187.101 255.564 185.271 254.224 183.124 254.224 C 182.818 254.224 182.52 254.256 182.228 254.308 C 182.236 254.153 182.251 253.998 182.251 253.841 C 182.251 248.69 178.075 244.513 172.923 244.513 C 171.523 244.513 170.2 244.831 169.008 245.384 C 168.221 239.663 163.326 235.252 157.388 235.252 C 153.036 235.252 149.245 237.626 147.216 241.144 C 145.622 240.053 143.695 239.413 141.617 239.413 C 136.318 239.413 132.001 243.566 131.714 248.794 C 130.38 249.044 129.148 249.577 128.08 250.33 C 126.892 249.711 125.545 249.356 124.113 249.356 C 119.363 249.356 115.512 253.206 115.512 257.956 C 115.512 258.027 115.521 258.096 115.523 258.167 C 112.778 258.877 110.748 261.364 110.748 264.331 C 110.748 265.104 110.892 265.84 111.144 266.525 L 138.564 266.525 Z " fill="rgb(153,161,242)"/><path d=" M 401.142 257.687 L 276.155 257.687 L 276.155 175.149 L 401.142 175.149 L 401.142 257.687 Z " fill="rgb(191,196,248)"/><path d=" M 343.126 111.24 L 208.406 111.24 L 147.392 175.148 L 282.112 175.148 L 343.126 111.24 Z " fill="rgb(194,199,246)"/><path d=" M 276.155 257.687 L 159.423 257.687 L 159.423 175.149 L 276.155 175.149 L 276.155 257.687 Z " fill="rgb(206,211,255)"/><path d=" M 217.243 111.24 L 156.228 175.148 L 278.454 175.148 L 217.439 111.24 L 217.243 111.24 Z " fill="rgb(206,211,255)"/><path d=" M 217.243 116.9 L 217.439 116.9 L 273.05 175.149 L 278.454 175.149 L 217.439 111.24 L 217.243 111.24 L 156.228 175.149 L 161.632 175.149 L 217.243 116.9 Z " fill="rgb(153,161,242)"/><path d=" M 208.406 111.24 L 343.126 111.24 L 404.14 175.148 L 269.421 175.148 L 208.406 111.24 Z " fill="rgb(254,255,255)"/><path d=" M 217.439 111.24 L 352.159 111.24 L 413.173 175.148 L 278.454 175.148 L 217.439 111.24 Z " fill="rgb(172,180,255)"/><path d=" M 224.02 169.326 L 208.493 169.326 L 208.493 150.686 L 224.02 150.686 L 224.02 169.326 Z " fill="rgb(235,237,255)"/><line x1="216.256" y1="150.686" x2="216.256" y2="169.326" vector-effect="non-scaling-stroke" stroke-width="2.721" stroke="rgb(255,255,255)" stroke-linejoin="miter" stroke-linecap="square" stroke-miterlimit="3"/><line x1="208.492" y1="159.898" x2="224.02" y2="159.898" vector-effect="non-scaling-stroke" stroke-width="2.721" stroke="rgb(255,255,255)" stroke-linejoin="miter" stroke-linecap="square" stroke-miterlimit="3"/><path d=" M 190.61 222.606 L 169.74 222.606 L 169.74 194.837 C 169.74 189.074 174.411 184.402 180.175 184.402 C 185.938 184.402 190.61 189.074 190.61 194.837 L 190.61 222.606 Z " fill="rgb(235,237,255)"/><path d=" M 190.61 222.606 L 169.74 222.606 L 169.74 194.837 C 169.74 189.074 174.411 184.402 180.175 184.402 C 185.938 184.402 190.61 189.074 190.61 194.837 L 190.61 222.606 Z " fill="none" vector-effect="non-scaling-stroke" stroke-width="2.721" stroke="rgb(255,255,255)" stroke-linejoin="miter" stroke-linecap="square" stroke-miterlimit="3"/><line x1="180.175" y1="184.402" x2="180.175" y2="222.605" vector-effect="non-scaling-stroke" stroke-width="2.721" stroke="rgb(255,255,255)" stroke-linejoin="miter" stroke-linecap="square" stroke-miterlimit="3"/><line x1="169.74" y1="197.551" x2="190.61" y2="197.551" vector-effect="non-scaling-stroke" stroke-width="2.721" stroke="rgb(255,255,255)" stroke-linejoin="miter" stroke-linecap="square" stroke-miterlimit="3"/><line x1="169.74" y1="209.932" x2="190.61" y2="209.932" vector-effect="non-scaling-stroke" stroke-width="2.721" stroke="rgb(255,255,255)" stroke-linejoin="miter" stroke-linecap="square" stroke-miterlimit="3"/><path d=" M 193.705 226.113 L 166.645 226.113 L 166.645 221.429 L 193.705 221.429 L 193.705 226.113 Z " fill="rgb(195,202,254)"/><path d=" M 193.705 226.113 L 166.645 226.113 L 166.645 224.817 L 193.705 224.817 L 193.705 226.113 Z " fill="rgb(153,161,242)"/><path d=" M 265.838 222.606 L 244.967 222.606 L 244.967 194.837 C 244.967 189.074 249.639 184.402 255.403 184.402 C 261.166 184.402 265.838 189.074 265.838 194.837 L 265.838 222.606 Z " fill="rgb(235,237,255)"/><path d=" M 265.838 222.606 L 244.967 222.606 L 244.967 194.837 C 244.967 189.074 249.639 184.402 255.403 184.402 C 261.166 184.402 265.838 189.074 265.838 194.837 L 265.838 222.606 Z " fill="none" vector-effect="non-scaling-stroke" stroke-width="2.721" stroke="rgb(255,255,255)" stroke-linejoin="miter" stroke-linecap="square" stroke-miterlimit="3"/><line x1="255.403" y1="184.402" x2="255.403" y2="222.605" vector-effect="non-scaling-stroke" stroke-width="2.721" stroke="rgb(255,255,255)" stroke-linejoin="miter" stroke-linecap="square" stroke-miterlimit="3"/><line x1="244.967" y1="197.551" x2="265.838" y2="197.551" vector-effect="non-scaling-stroke" stroke-width="2.721" stroke="rgb(255,255,255)" stroke-linejoin="miter" stroke-linecap="square" stroke-miterlimit="3"/><line x1="244.967" y1="209.932" x2="265.838" y2="209.932" vector-effect="non-scaling-stroke" stroke-width="2.721" stroke="rgb(255,255,255)" stroke-linejoin="miter" stroke-linecap="square" stroke-miterlimit="3"/><path d=" M 268.933 226.113 L 241.873 226.113 L 241.873 221.429 L 268.933 221.429 L 268.933 226.113 Z " fill="rgb(195,202,254)"/><path d=" M 268.933 226.113 L 241.873 226.113 L 241.873 224.817 L 268.933 224.817 L 268.933 226.113 Z " fill="rgb(153,161,242)"/><path d=" M 234.414 257.687 L 201.163 257.687 L 201.163 185.524 L 234.414 185.524 L 234.414 257.687 Z " fill="rgb(172,180,255)"/><path d=" M 204.384 188.746 L 231.193 188.746 L 231.193 257.687 L 204.384 257.687 L 204.384 188.746 Z " fill="rgb(153,161,242)"/><path d=" M 205.996 190.357 L 229.582 190.357 L 229.582 257.687 L 205.996 257.687 L 205.996 190.357 Z " fill="rgb(172,180,255)"/><path d=" M 227.71 223.665 C 227.71 224.802 226.788 225.724 225.651 225.724 C 224.513 225.724 223.592 224.802 223.592 223.665 C 223.592 222.527 224.513 221.605 225.651 221.605 C 226.788 221.605 227.71 222.527 227.71 223.665 Z " fill="rgb(153,161,242)"/><g opacity="0.279999"><path d=" M 344.084 207.801 L 336.16 207.801 L 336.16 205.035 L 344.084 205.035 L 344.084 207.801 Z " fill="rgb(151,158,231)"/></g><g opacity="0.279999"><path d=" M 325.479 228.549 L 317.772 228.549 L 317.772 225.783 L 325.479 225.783 L 325.479 228.549 Z " fill="rgb(151,158,231)"/></g><g opacity="0.279999"><path d=" M 303.354 198.715 L 298.459 198.715 L 298.459 195.948 L 303.354 195.948 L 303.354 198.715 Z " fill="rgb(151,158,231)"/></g><g opacity="0.279999"><path d=" M 338.605 185.741 L 332.08 185.741 L 332.08 182.975 L 338.605 182.975 L 338.605 185.741 Z " fill="rgb(151,158,231)"/></g><g opacity="0.279999"><path d=" M 349.768 203.794 L 341.844 203.794 L 341.844 201.028 L 349.768 201.028 L 349.768 203.794 Z " fill="rgb(151,158,231)"/></g><g opacity="0.279999"><path d=" M 303.256 243.788 L 295.332 243.788 L 295.332 241.021 L 303.256 241.021 L 303.256 243.788 Z " fill="rgb(151,158,231)"/></g><g opacity="0.279999"><path d=" M 293.311 243.788 L 288.418 243.788 L 288.418 241.021 L 293.311 241.021 L 293.311 243.788 Z " fill="rgb(151,158,231)"/></g><g opacity="0.279999"><path d=" M 299.974 239.78 L 292.05 239.78 L 292.05 237.014 L 299.974 237.014 L 299.974 239.78 Z " fill="rgb(151,158,231)"/></g><line x1="232.349" y1="119.088" x2="348.531" y2="119.088" vector-effect="non-scaling-stroke" stroke-width="1.032" stroke="rgb(153,161,242)" stroke-linejoin="miter" stroke-linecap="square" stroke-miterlimit="3"/><line x1="244.644" y1="130.968" x2="360.825" y2="130.968" vector-effect="non-scaling-stroke" stroke-width="1.032" stroke="rgb(153,161,242)" stroke-linejoin="miter" stroke-linecap="square" stroke-miterlimit="3"/><line x1="256.939" y1="142.849" x2="373.12" y2="142.849" vector-effect="non-scaling-stroke" stroke-width="1.032" stroke="rgb(153,161,242)" stroke-linejoin="miter" stroke-linecap="square" stroke-miterlimit="3"/><line x1="269.234" y1="154.729" x2="385.414" y2="154.729" vector-effect="non-scaling-stroke" stroke-width="1.032" stroke="rgb(153,161,242)" stroke-linejoin="miter" stroke-linecap="square" stroke-miterlimit="3"/><line x1="281.528" y1="166.609" x2="397.709" y2="166.609" vector-effect="non-scaling-stroke" stroke-width="1.032" stroke="rgb(153,161,242)" stroke-linejoin="miter" stroke-linecap="square" stroke-miterlimit="3"/><path d=" M 351.949 261.531 L 152.875 261.531 L 152.875 266.525 L 351.949 266.525 L 351.949 261.531 Z " fill="rgb(124,132,213)"/><path d=" M 351.949 261.531 L 159.423 261.531 L 159.423 257.687 L 351.949 257.687 L 351.949 261.531 Z " fill="rgb(181,190,255)"/><path d=" M 311.5 266.525 L 362.023 266.525 L 377.867 266.525 C 379.123 264.861 379.878 262.797 379.878 260.553 C 379.878 255.81 376.55 251.85 372.105 250.863 C 371.879 245.911 367.806 241.964 362.799 241.964 C 359.831 241.964 357.192 243.354 355.484 245.514 C 353.929 244.503 352.075 243.91 350.082 243.91 C 349.492 243.91 348.918 243.971 348.356 244.069 C 347.054 239.003 342.469 235.252 336.996 235.252 C 331.057 235.252 326.163 239.663 325.375 245.384 C 324.183 244.831 322.86 244.513 321.46 244.513 C 316.308 244.513 312.132 248.69 312.132 253.841 C 312.132 254.245 312.167 254.639 312.216 255.029 C 312.077 255.018 311.938 255.008 311.796 255.008 C 309.893 255.008 308.238 256.061 307.376 257.614 C 306.858 257.478 306.317 257.398 305.756 257.398 C 302.236 257.398 299.381 260.252 299.381 263.774 C 299.381 264.76 299.612 265.691 300.012 266.525 L 311.5 266.525 Z " fill="rgb(238,240,255)"/><path d=" M 365.183 266.525 L 341.411 266.525 L 333.957 266.525 C 333.366 265.743 333.011 264.772 333.011 263.715 C 333.011 261.483 334.577 259.62 336.668 259.156 C 336.774 256.826 338.691 254.969 341.048 254.969 C 342.444 254.969 343.685 255.623 344.489 256.639 C 345.221 256.163 346.092 255.884 347.031 255.884 C 347.308 255.884 347.579 255.913 347.842 255.959 C 348.455 253.575 350.612 251.811 353.188 251.811 C 355.981 251.811 358.284 253.886 358.656 256.578 C 359.216 256.318 359.838 256.169 360.497 256.169 C 362.921 256.169 364.886 258.133 364.886 260.558 C 364.886 260.748 364.871 260.932 364.846 261.116 C 364.912 261.111 364.977 261.106 365.044 261.106 C 365.939 261.106 366.718 261.602 367.123 262.333 C 367.367 262.269 367.622 262.231 367.886 262.231 C 369.543 262.231 370.886 263.574 370.886 265.23 C 370.886 265.695 370.777 266.133 370.589 266.525 L 365.183 266.525 Z " fill="rgb(206,211,255)"/><path d=" M 105.152 266.525 L 136.841 266.525 L 146.779 266.525 C 147.566 265.481 148.039 264.187 148.039 262.779 C 148.039 259.804 145.953 257.32 143.164 256.701 C 143.023 253.596 140.467 251.119 137.327 251.119 C 135.465 251.119 133.81 251.991 132.739 253.346 C 131.763 252.712 130.601 252.34 129.35 252.34 C 128.981 252.34 128.62 252.378 128.268 252.44 C 127.452 249.262 124.575 246.91 121.142 246.91 C 117.419 246.91 114.348 249.676 113.853 253.264 C 113.106 252.918 112.276 252.719 111.398 252.719 C 108.166 252.719 105.547 255.338 105.547 258.57 C 105.547 258.823 105.569 259.07 105.599 259.315 C 105.513 259.308 105.426 259.301 105.336 259.301 C 104.143 259.301 103.105 259.961 102.564 260.936 C 102.24 260.851 101.9 260.801 101.549 260.801 C 99.34 260.801 97.55 262.591 97.55 264.799 C 97.55 265.418 97.694 266.002 97.946 266.525 L 105.152 266.525 Z " fill="rgb(206,211,255)"/><path d=" M 337.534 344.61 C 338.597 339.462 341.59 336.562 345.818 333.517 C 349.082 331.168 353.121 328.989 354.925 325.182 C 358.91 316.773 351.067 313.261 347.606 307.098 C 343.968 300.62 347.228 293.187 345.403 286.372 C 344.335 282.383 342.307 281.728 339.014 279.834 C 336.712 278.511 334.324 276.907 332.553 274.901 C 330.022 272.032 328.375 268.304 324.554 267.106 C 317.69 264.954 314.236 272.229 315.749 278.185 C 317.271 284.168 320.655 288.247 318.247 294.557 C 317.032 297.745 315.505 300.466 316.53 303.912 C 317.545 307.325 320.209 309.8 322.854 312.033 C 327.997 316.377 331.674 319.756 331.376 326.677 C 331.163 331.563 330.602 336.094 333.628 340.293 C 334.827 341.958 336.285 343.109 337.534 344.61 Z " fill="rgb(153,161,242)"/><path d=" M 335.871 343.185 C 335.871 343.185 343.553 313.334 325.993 276.167" fill="none" vector-effect="non-scaling-stroke" stroke-width="0.65" stroke="rgb(124,132,213)" stroke-linejoin="miter" stroke-linecap="square" stroke-miterlimit="3"/><path d=" M 337.026 315.51 C 337.026 315.51 331.137 308.893 322.739 304.888" fill="none" vector-effect="non-scaling-stroke" stroke-width="0.65" stroke="rgb(124,132,213)" stroke-linejoin="miter" stroke-linecap="square" stroke-miterlimit="3"/><path d=" M 337.452 330.248 C 337.452 330.248 341.651 324.94 347.581 321.624" fill="none" vector-effect="non-scaling-stroke" stroke-width="0.65" stroke="rgb(124,132,213)" stroke-linejoin="miter" stroke-linecap="square" stroke-miterlimit="3"/><path d=" M 335.309 304.057 C 335.309 304.057 336.412 296.187 341.018 291.386" fill="none" vector-effect="non-scaling-stroke" stroke-width="0.65" stroke="rgb(124,132,213)" stroke-linejoin="miter" stroke-linecap="square" stroke-miterlimit="3"/><path d=" M 331.753 290.611 C 331.753 290.611 325.588 283.303 320.099 279.733" fill="none" vector-effect="non-scaling-stroke" stroke-width="0.65" stroke="rgb(124,132,213)" stroke-linejoin="miter" stroke-linecap="square" stroke-miterlimit="3"/><path d=" M 340.307 350.522 C 340.307 350.522 336.021 316.156 291.722 276.52" fill="none" vector-effect="non-scaling-stroke" stroke-width="0.883" stroke="rgb(124,132,213)" stroke-linejoin="miter" stroke-linecap="square" stroke-miterlimit="3"/><path d=" M 301.054 285.517 C 301.054 285.517 297.679 280.937 302.8 276.245 C 302.8 276.245 306.875 281.14 301.054 285.517 Z " fill="rgb(124,132,213)"/><path d=" M 307.317 292.131 C 307.317 292.131 303.535 286.999 309.273 281.742 C 309.273 281.742 313.839 287.226 307.317 292.131 Z " fill="rgb(124,132,213)"/><path d=" M 313.054 298.641 C 313.054 298.641 308.977 293.106 315.163 287.439 C 315.163 287.439 320.087 293.351 313.054 298.641 Z " fill="rgb(124,132,213)"/><path d=" M 319.291 306.628 C 319.291 306.628 314.628 300.301 321.704 293.818 C 321.704 293.818 327.333 300.58 319.291 306.628 Z " fill="rgb(124,132,213)"/><path d=" M 324.54 314.168 C 324.54 314.168 320.476 306.336 329.454 300.386 C 329.454 300.386 334.513 308.867 324.54 314.168 Z " fill="rgb(124,132,213)"/><path d=" M 330.778 324.792 C 330.778 324.792 325.963 316.916 333.574 309.974 C 333.574 309.974 339.405 318.452 330.778 324.792 Z " fill="rgb(124,132,213)"/><path d=" M 304.544 289.044 C 304.544 289.044 300.299 284.287 293.974 288.821 C 293.974 288.821 298.401 294.418 304.544 289.044 Z " fill="rgb(124,132,213)"/><path d=" M 310.969 295.849 C 310.969 295.849 306.123 291.211 299.864 296.488 C 299.864 296.488 304.971 301.993 310.969 295.849 Z " fill="rgb(124,132,213)"/><path d=" M 316.347 302.132 C 316.347 302.132 310.805 297.537 304.507 303.667 C 304.507 303.667 310.395 309.169 316.347 302.132 Z " fill="rgb(124,132,213)"/><path d=" M 322.267 310.452 C 322.267 310.452 316.974 305.007 309.676 310.723 C 309.676 310.723 315.23 317.159 322.267 310.452 Z " fill="rgb(124,132,213)"/><path d=" M 326.765 317.875 C 326.765 317.875 321.471 312.43 314.174 318.146 C 314.174 318.146 319.728 324.582 326.765 317.875 Z " fill="rgb(124,132,213)"/><path d=" M 333.06 328.735 C 333.06 328.735 329.164 322.217 320.746 326.099 C 320.746 326.099 324.668 333.641 333.06 328.735 Z " fill="rgb(124,132,213)"/><path d=" M 296.022 280.336 C 296.022 280.336 289.771 281.586 287.442 274.16 C 287.442 274.16 294.345 272.35 296.022 280.336 Z " fill="rgb(124,132,213)"/><path d=" M 337.552 346.064 C 332.921 339.438 334.839 332.698 333.654 324.993 C 333.041 321.019 331.38 318.383 327.864 316.187 C 322.865 313.062 319.01 315.36 313.733 316.314 C 306.854 317.559 300.218 307.847 294.582 305.189 C 289.23 302.666 284.304 302.614 279.302 305.493 C 276.514 307.1 274.213 308.635 270.99 309.421 C 266.145 310.601 260.738 309.147 255.998 310.867 C 253.449 311.793 250.098 313.788 249.13 316.413 C 246.78 322.785 252.803 329.096 258.38 330.783 C 262.876 332.144 267.674 330.133 272.234 331.34 C 276.123 332.369 278.779 335.005 281.294 338.003 C 286.198 343.852 291.9 349.413 300.126 347.043 C 307.003 345.062 314.086 341.126 321.475 342.373 C 327.137 343.327 332.455 345.745 337.552 346.064 Z " fill="rgb(172,180,255)"/><path d=" M 337.552 346.064 C 337.552 346.064 311.298 319.757 261.951 315.146" fill="none" vector-effect="non-scaling-stroke" stroke-width="0.65" stroke="rgb(124,132,213)" stroke-linejoin="miter" stroke-linecap="square" stroke-miterlimit="3"/><path d=" M 309.547 327.866 C 309.547 327.866 299.064 329.911 289.749 336.165" fill="none" vector-effect="non-scaling-stroke" stroke-width="0.65" stroke="rgb(124,132,213)" stroke-linejoin="miter" stroke-linecap="square" stroke-miterlimit="3"/><path d=" M 325.101 336.477 C 325.101 336.477 322.173 328.86 322.374 320.67" fill="none" vector-effect="non-scaling-stroke" stroke-width="0.65" stroke="rgb(124,132,213)" stroke-linejoin="miter" stroke-linecap="square" stroke-miterlimit="3"/><path d=" M 296.61 322.613 C 296.61 322.613 289.122 316.633 286.97 308.906" fill="none" vector-effect="non-scaling-stroke" stroke-width="0.65" stroke="rgb(124,132,213)" stroke-linejoin="miter" stroke-linecap="square" stroke-miterlimit="3"/><path d=" M 280.475 318.042 C 280.475 318.042 269.106 319.951 262.03 323.453" fill="none" vector-effect="non-scaling-stroke" stroke-width="0.65" stroke="rgb(124,132,213)" stroke-linejoin="miter" stroke-linecap="square" stroke-miterlimit="3"/><g opacity="0.220001"><path d=" M 77.81 160.087 C 87.843 154.535 105.749 139.859 100.643 126.214 C 96.837 116.042 82.591 118.757 78.95 127.272 C 76.892 132.081 76.896 137.254 74.169 141.695 C 72.036 145.167 69.654 146.936 68.479 150.806 C 66.953 155.826 71.483 166.536 77.81 160.087 Z " fill="rgb(172,180,255)"/></g><g opacity="0.220001"><path d=" M 259.979 86.674 C 260.242 87.649 260.092 88.763 259.829 89.945 C 259.47 91.56 258.041 93.035 257.003 94.06 C 254.854 96.178 252.75 96.354 250.063 96.83 C 247.255 97.328 244.655 98.295 242.003 99.449 C 239.258 100.644 235.98 100.443 233.136 99.756 C 231.087 99.262 228.579 97.02 227.977 94.574 C 227.605 93.068 227.682 90.851 228.558 89.627 C 230.52 86.884 234.213 85.855 237.084 85.76 C 240.505 85.646 244.003 86.376 247.388 85.55 C 249.973 84.919 252.455 83.753 255.135 83.769 C 256.494 83.778 257.894 84.093 258.997 85.089 C 259.515 85.557 259.821 86.09 259.979 86.674 Z " fill="rgb(172,180,255)"/></g></g></svg>